<svg width="144" height="144" viewBox="0 0 144 144" fill="none" xmlns="http://www.w3.org/2000/svg">
<rect width="144" height="144" fill="white"/>
<path d="M38.2461 118.262C35.707 118.327 33.6237 117.871 31.9961 116.895C30.3034 115.918 29.0013 114.486 28.0898 112.598C27.1133 110.775 26.4948 108.529 26.2344 105.859C25.974 103.255 25.974 100.391 26.2344 97.2656C26.5599 94.8568 27.1458 92.3503 27.9922 89.7461C28.7083 87.5326 29.8151 85.0911 31.3125 82.4219C32.7448 79.7526 34.6979 77.1484 37.1719 74.6094C37.6927 74.7396 38.1159 74.9023 38.4414 75.0977C38.7669 75.2279 39.0273 75.3906 39.2227 75.5859C39.418 75.8464 39.5482 76.0742 39.6133 76.2695C39.7435 76.9857 39.5482 77.7995 39.0273 78.7109C38.5065 79.6224 37.9857 80.599 37.4648 81.6406C36.0326 84.6354 34.9583 87.4674 34.2422 90.1367C33.526 92.806 33.0703 95.2799 32.875 97.5586C32.7448 99.5117 32.7773 101.27 32.9727 102.832C33.1029 104.46 33.3307 105.827 33.6562 106.934C33.9818 108.105 34.3398 108.984 34.7305 109.57C35.1211 110.221 35.4792 110.547 35.8047 110.547C36.1302 110.547 36.4557 110.319 36.7812 109.863C37.1719 109.408 37.5299 108.854 37.8555 108.203C38.2461 107.552 38.7018 106.543 39.2227 105.176C39.7435 103.874 40.2969 102.344 40.8828 100.586C41.4688 98.8281 42.0221 96.9401 42.543 94.9219C43.1289 92.8385 43.6497 90.7552 44.1055 88.6719C45.0169 84.5052 45.9935 79.8177 47.0352 74.6094C48.0768 69.3359 49.6068 63.8346 51.625 58.1055C52.276 55.6966 53.0898 53.0599 54.0664 50.1953C54.8477 47.7214 55.8242 44.8568 56.9961 41.6016C58.2331 38.2812 59.6328 34.7005 61.1953 30.8594C61.1953 30.5339 61.4557 30.2409 61.9766 29.9805C62.5625 29.6549 63.2135 29.3294 63.9297 29.0039C64.7109 28.6784 65.5898 28.3529 66.5664 28.0273C67.8685 27.5716 68.8776 27.3112 69.5938 27.2461C70.375 27.181 70.9609 27.2786 71.3516 27.5391C71.7422 27.7995 72.0026 28.1576 72.1328 28.6133C72.263 29.0039 72.3281 29.4596 72.3281 29.9805C72.4583 32.1289 72.5234 34.1471 72.5234 36.0352C72.5885 37.9232 72.6536 39.5833 72.7188 41.0156C72.7839 42.7083 72.8164 44.2383 72.8164 45.6055C72.8815 47.4284 72.7839 49.8698 72.5234 52.9297C72.263 55.9245 71.9701 59.082 71.6445 62.4023C71.3841 65.7227 71.1237 68.9779 70.8633 72.168C70.668 75.293 70.6354 77.8971 70.7656 79.9805C70.7656 81.0872 70.7982 82.1289 70.8633 83.1055C70.9935 84.0169 71.1237 84.9284 71.2539 85.8398C72.1003 83.4961 73.0443 81.0547 74.0859 78.5156C75.1276 75.9115 76.1693 73.4375 77.2109 71.0938C78.2526 68.6849 79.2292 66.4714 80.1406 64.4531C81.0521 62.3698 81.7682 60.6445 82.2891 59.2773C83.0703 57.4544 84.112 55.1432 85.4141 52.3438C86.7161 49.5443 88.0182 46.7448 89.3203 43.9453C90.6875 41.1458 91.9245 38.5742 93.0312 36.2305C94.2031 33.8867 95.0495 32.2591 95.5703 31.3477C95.9609 30.6966 96.612 30.1107 97.5234 29.5898C98.5 29.069 99.5091 28.6133 100.551 28.2227C101.658 27.832 102.667 27.5716 103.578 27.4414C104.555 27.2461 105.206 27.2135 105.531 27.3438C106.378 27.5391 106.964 27.7995 107.289 28.125C107.68 28.4505 107.908 28.6784 107.973 28.8086C108.103 29.069 108.201 29.5247 108.266 30.1758C108.331 30.7617 108.298 31.7057 108.168 33.0078C108.038 34.5703 107.647 36.9466 106.996 40.1367C106.41 43.3268 105.661 46.9727 104.75 51.0742C103.904 55.1107 102.96 59.4401 101.918 64.0625C100.941 68.6849 99.9974 73.2422 99.0859 77.7344C98.1745 82.1615 97.3607 86.3281 96.6445 90.2344C95.9935 94.1406 95.5703 97.4284 95.375 100.098C95.2448 103.092 95.4401 105.729 95.9609 108.008C96.1562 108.984 96.4492 109.928 96.8398 110.84C97.2305 111.751 97.7513 112.533 98.4023 113.184C99.0534 113.9 99.8346 114.421 100.746 114.746C101.658 115.072 102.732 115.169 103.969 115.039C102.341 116.146 100.746 116.96 99.1836 117.48C97.6211 118.001 96.0911 118.262 94.5938 118.262C92.9661 118.327 91.5339 118.066 90.2969 117.48C89.0599 116.96 88.0182 116.178 87.1719 115.137C86.3255 114.16 85.707 112.956 85.3164 111.523C84.9258 110.156 84.7956 108.626 84.9258 106.934C85.056 105.371 85.4792 102.799 86.1953 99.2188C86.9115 95.638 87.7578 91.6016 88.7344 87.1094C89.776 82.5521 90.8828 77.832 92.0547 72.9492C93.2917 68.0013 94.431 63.3789 95.4727 59.082C96.5794 54.7201 97.5234 50.9766 98.3047 47.8516C99.0859 44.7266 99.5742 42.6758 99.7695 41.6992C99.8997 40.918 99.9974 40.2018 100.062 39.5508C100.193 38.8346 100.323 38.2161 100.453 37.6953C99.8021 38.9974 98.9883 40.5599 98.0117 42.3828C97.1003 44.2057 96.1237 46.1589 95.082 48.2422C94.0404 50.3255 92.9661 52.5065 91.8594 54.7852C90.8177 56.9987 89.8086 59.1471 88.832 61.2305C87.2044 64.6159 85.6094 68.099 84.0469 71.6797C82.4844 75.1953 81.0846 78.5482 79.8477 81.7383C78.6107 84.9284 77.569 87.793 76.7227 90.332C75.9414 92.8711 75.4857 94.8242 75.3555 96.1914V97.5586C75.3555 97.9492 75.3555 98.4049 75.3555 98.9258C75.4206 99.4466 75.5182 99.9349 75.6484 100.391L71.7422 103.418C71.1562 103.613 70.6354 103.776 70.1797 103.906C69.7891 104.036 69.3984 104.102 69.0078 104.102C67.5104 104.102 66.3711 103.32 65.5898 101.758C64.8086 100.326 64.0924 97.526 63.4414 93.3594C62.7904 89.1927 62.5951 84.082 62.8555 78.0273C62.9857 75.0326 63.181 72.0052 63.4414 68.9453C63.7669 65.8854 64.0599 62.9557 64.3203 60.1562C64.6458 57.3568 64.9388 54.7526 65.1992 52.3438C65.4596 49.8698 65.5898 47.7539 65.5898 45.9961C65.6549 44.694 65.6224 43.5221 65.4922 42.4805C65.362 41.3737 65.2318 40.3646 65.1016 39.4531C64.5156 40.9505 63.8646 43.0013 63.1484 45.6055C62.4323 48.1445 61.6836 50.9766 60.9023 54.1016C60.1211 57.2266 59.3073 60.5143 58.4609 63.9648C57.6797 67.4154 56.8984 70.7357 56.1172 73.9258C55.401 77.1159 54.7174 80.0781 54.0664 82.8125C53.4154 85.4818 52.8945 87.6302 52.5039 89.2578C51.8529 91.862 51.2018 94.8242 50.5508 98.1445C49.8997 101.465 49.0859 104.59 48.1094 107.52C47.1328 110.514 45.8633 113.021 44.3008 115.039C42.7383 117.122 40.7201 118.197 38.2461 118.262Z" fill="black"/>
</svg>
