<svg width="24" height="24" viewBox="0 0 24 24" fill="none" xmlns="http://www.w3.org/2000/svg">
<path fill-rule="evenodd" clip-rule="evenodd" d="M18.979 6.02104L13.269 10.8546L14.1454 11.731L18.979 6.02104ZM11.7373 12.1513L10.2341 13.4237C10.2341 13.4237 10.2341 13.4237 10.2341 13.4237C9.80886 13.7837 9.78208 14.4301 10.1759 14.824C10.5699 15.2179 11.2163 15.191 11.5761 14.766L11.5762 14.7659L12.8487 13.2627L11.7373 12.1513ZM7.95103 13.5873C8.07386 12.952 8.40568 12.3511 8.94183 11.8973L19.8142 2.69361C19.8143 2.69359 19.8143 2.69358 19.8143 2.69357C20.5164 2.09918 21.5567 2.14256 22.2071 2.79267L22.2072 2.79283C22.8577 3.44335 22.9006 4.48377 22.3065 5.18573L22.3064 5.18577L14.9698 13.8525L13.1027 16.0581C12.6187 16.6298 11.9677 16.9692 11.2859 17.0706C11.3214 17.2918 11.3399 17.5188 11.3399 17.75C11.3399 20.0972 9.43717 22 7.08994 22H2.5001C2.03636 22 1.63346 21.6812 1.52687 21.2298C1.42028 20.7785 1.63797 20.3131 2.05271 20.1057L2.26301 20.0005L2.26318 20.0004C2.86633 19.6988 3.16705 19.0087 2.97724 18.3615C2.97723 18.3615 2.97722 18.3615 2.97721 18.3614C2.89273 18.0736 2.82089 17.7063 2.86334 17.3022M7.95103 13.5873C7.67295 13.5301 7.38495 13.5 7.08994 13.5C4.89377 13.5 3.08776 15.165 2.86334 17.3022M21.1063 4.22025L21.1065 4.22007C21.1065 4.22005 21.1065 4.22004 21.1065 4.22003M21.1065 4.22007C21.1064 4.22013 21.1064 4.22019 21.1063 4.22025L21.1065 4.22007ZM7.08994 15.5C5.92821 15.5 4.97103 16.3812 4.8524 17.511C4.84721 17.5604 4.85235 17.6486 4.89629 17.7983L4.89633 17.7984C5.11568 18.5461 5.06611 19.3174 4.79652 20H7.08994C8.33256 20 9.3399 18.9926 9.3399 17.75C9.3399 16.5073 8.33258 15.5 7.08994 15.5Z" fill="black"/>
</svg>
