<svg width="24" height="24" viewBox="0 0 24 24" fill="none" xmlns="http://www.w3.org/2000/svg">
<path fill-rule="evenodd" clip-rule="evenodd" d="M19.6853 5.55155C19.5291 5.60258 19.4525 5.65415 19.2503 5.84423C19.1154 5.97116 17.061 8.00468 14.685 10.3632C12.309 12.7217 10.0401 14.9736 9.64308 15.3674L8.92119 16.0834L6.74808 13.9281C4.29426 11.4944 4.45017 11.6245 3.99 11.6256C3.76884 11.6261 3.71193 11.6378 3.5613 11.7136C3.35856 11.8155 3.17136 12.0065 3.07998 12.2047C3.02898 12.3153 3.01527 12.4021 3.01515 12.615C3.01488 13.0738 2.87052 12.9079 5.79 15.8032C8.66817 18.6576 8.47356 18.4906 8.925 18.4933C9.37965 18.496 9.01023 18.8306 13.755 14.1182C21.2384 6.68597 20.8138 7.1129 20.9038 6.92999C20.9738 6.78767 20.985 6.72785 20.985 6.49499C20.985 6.24431 20.9776 6.2114 20.882 6.03497C20.6445 5.59697 20.1535 5.39861 19.6853 5.55155Z" fill="black"/>
</svg>
