<svg width="24" height="24" viewBox="0 0 24 24" fill="none" xmlns="http://www.w3.org/2000/svg">
<path fill-rule="evenodd" clip-rule="evenodd" d="M11.8419 8.01309C11.5126 8.06397 11.5961 7.98681 8.27582 11.3065C5.27195 14.3098 5.13398 14.4525 5.07332 14.6186C4.99187 14.8418 4.98866 15.1533 5.06573 15.3561C5.26298 15.8752 5.837 16.1264 6.37496 15.929C6.54881 15.8652 6.64805 15.77 9.2777 13.1443L12.0004 10.4256L14.6777 13.0986C16.1502 14.5687 17.3979 15.8007 17.4505 15.8364C17.8317 16.0953 18.3701 16.0386 18.7043 15.7043C18.9844 15.4242 19.0693 15.0098 18.9266 14.6186C18.866 14.4524 18.7279 14.3096 15.7091 11.2908C12.7382 8.3199 12.5454 8.13321 12.39 8.07747C12.1833 8.00334 12.0252 7.98477 11.8419 8.01309Z" fill="black"/>
</svg>
