<svg width="24" height="24" viewBox="0 0 24 24" fill="none" xmlns="http://www.w3.org/2000/svg">
<path fill-rule="evenodd" clip-rule="evenodd" d="M8.84191 5.01309C8.50948 5.06445 8.18587 5.32206 8.07223 5.62578C7.9885 5.84961 7.98898 6.15045 8.07349 6.38136C8.13406 6.54693 8.2633 6.68148 10.8554 9.2775L13.5739 12L10.8554 14.7225C8.2633 17.3185 8.13406 17.4531 8.07349 17.6186C7.99186 17.8417 7.98856 18.1531 8.06572 18.3561C8.26291 18.8751 8.83648 19.1262 9.37495 18.9292C9.54943 18.8654 9.65185 18.7664 12.7091 15.7092C15.7279 12.6904 15.866 12.5476 15.9266 12.3814C15.9683 12.2673 15.9899 12.1365 15.9899 12C15.9899 11.8635 15.9683 11.7327 15.9266 11.6186C15.866 11.4524 15.7279 11.3096 12.7091 8.29083C9.73822 5.3199 9.54535 5.13321 9.38995 5.07747C9.18331 5.00334 9.02518 4.98477 8.84191 5.01309Z" fill="black"/>
</svg>
