<svg width="24" height="24" viewBox="0 0 24 24" fill="none" xmlns="http://www.w3.org/2000/svg">
<path fill-rule="evenodd" clip-rule="evenodd" d="M5.84191 8.01309C5.50948 8.06445 5.18587 8.32206 5.07223 8.62578C4.9885 8.84955 4.98898 9.15045 5.07343 9.38136C5.13409 9.54726 5.27428 9.69258 8.21593 12.6398C9.9094 14.3365 11.3522 15.7647 11.4221 15.8136C11.6994 16.0073 12.0463 16.0494 12.375 15.9292C12.5494 15.8654 12.6519 15.7664 15.7091 12.7092C18.7279 9.69039 18.866 9.54756 18.9266 9.38136C19.1762 8.69709 18.7092 8.00361 18 8.00547C17.7903 8.00601 17.6033 8.05986 17.4505 8.1636C17.3979 8.19927 16.1502 9.43131 14.6777 10.9014L12.0004 13.5744L9.27769 10.8557C6.72289 8.30475 6.54478 8.13342 6.38995 8.07768C6.18355 8.00337 6.02539 7.98474 5.84191 8.01309Z" fill="black"/>
</svg>
