<svg width="24" height="24" viewBox="0 0 24 24" fill="none" xmlns="http://www.w3.org/2000/svg">
<path fill-rule="evenodd" clip-rule="evenodd" d="M14.8419 5.0131C14.5125 5.06398 14.5961 4.98682 11.2758 8.30647C8.27189 11.3098 8.13392 11.4525 8.07326 11.6187C7.98857 11.8507 7.9886 12.1495 8.07338 12.3814C8.13404 12.5473 8.27423 12.6926 11.2159 15.6399C12.9093 17.3365 14.3521 18.7647 14.4221 18.8136C14.8272 19.0967 15.357 19.0515 15.7042 18.7044C15.9845 18.4241 16.0693 18.0094 15.9264 17.6187C15.8658 17.4531 15.7365 17.3185 13.1444 14.7225L10.426 12L13.1444 9.27751C15.7365 6.68149 15.8658 6.54694 15.9264 6.38137C16.1989 5.63653 15.6107 4.89433 14.8419 5.0131Z" fill="black"/>
</svg>
