<svg width="24" height="24" viewBox="0 0 24 24" fill="none" xmlns="http://www.w3.org/2000/svg">
<path fill-rule="evenodd" clip-rule="evenodd" d="M5.60989 2.01306C4.67053 2.09769 3.78253 2.53497 3.10099 3.24849C2.55052 3.82476 2.1991 4.51347 2.04847 5.31117C1.9981 5.57808 1.99489 5.97513 1.99489 11.97C1.99489 18.8075 1.98955 18.5561 2.14639 19.0972C2.34058 19.7674 2.67709 20.3276 3.19069 20.8356C3.67702 21.3168 4.14598 21.6061 4.76983 21.81C5.4094 22.019 4.89097 22.005 11.9999 22.005C18.0589 22.005 18.4203 22.0021 18.6899 21.9506C19.2369 21.8463 19.7757 21.6282 20.2349 21.3253C20.5451 21.1207 21.1206 20.5452 21.3252 20.235C21.6278 19.7763 21.8442 19.2399 21.9514 18.6827C22.0017 18.4217 22.0049 18.0202 22.0049 12C22.0049 4.89108 22.0189 5.40951 21.8099 4.76994C21.6028 4.13619 21.3147 3.67284 20.8209 3.17901C20.33 2.68806 19.8738 2.40276 19.2443 2.19282C18.6195 1.98444 19.1452 1.99932 12.1799 1.99305C8.72315 1.98993 5.76664 1.99893 5.60989 2.01306ZM5.62489 4.03962C5.48014 4.07097 5.12878 4.20483 4.99513 4.27956C4.78996 4.39422 4.46308 4.71177 4.32475 4.93083C4.26034 5.03283 4.16878 5.21724 4.12126 5.34063L4.03489 5.565V12V18.435L4.12126 18.6594C4.31275 19.1568 4.66237 19.5504 5.10532 19.7672C5.56465 19.9921 5.35144 19.98 8.85619 19.98H11.9999V16.5034V13.0269L11.3924 13.0146C10.8021 13.0026 10.7796 12.9998 10.5979 12.9172C10.38 12.8182 10.1674 12.608 10.0713 12.3965C9.98056 12.1968 9.98056 11.8032 10.0713 11.6035C10.1674 11.392 10.38 11.1817 10.5979 11.0828C10.7795 11.0002 10.8023 10.9974 11.39 10.9855L11.9952 10.9732L12.0069 9.94908C12.0185 8.94693 12.0205 8.91858 12.1002 8.625C12.1982 8.26413 12.4792 7.68084 12.6858 7.40904C12.8774 7.15713 13.2842 6.76686 13.5271 6.60189C13.8083 6.41094 14.2848 6.19401 14.6249 6.10209C14.8985 6.02814 14.9843 6.01983 15.5999 6.00774C16.2444 5.99508 16.283 5.99754 16.4547 6.06213C16.7008 6.15471 16.945 6.39888 17.0379 6.64521C17.0929 6.79095 17.1034 6.86802 17.0931 7.05213C17.0715 7.44012 16.8834 7.72557 16.5372 7.89606C16.3371 7.99455 16.3365 7.99464 15.7509 8.01306C15.1265 8.03271 14.9997 8.05935 14.7191 8.23005C14.3987 8.42496 14.107 8.84427 14.0399 9.20658C14.0234 9.29547 14.0099 9.73086 14.0099 10.1741V10.98H15.0558C15.6378 10.98 16.1729 10.9935 16.2623 11.0105C16.5908 11.0728 16.846 11.2613 17.0012 11.5565C17.0754 11.6975 17.0846 11.7464 17.0846 12C17.0846 12.2536 17.0754 12.3025 17.0012 12.4435C16.846 12.7387 16.5908 12.9272 16.2623 12.9895C16.1729 13.0065 15.6378 13.02 15.0558 13.02H14.0099V16.5009V19.9819L16.2224 19.9734L18.4349 19.965L18.6599 19.8787C19.2357 19.6579 19.6566 19.2369 19.8784 18.66L19.9649 18.435V12V5.565L19.8823 5.3511C19.7496 5.00754 19.654 4.86012 19.3969 4.60302C19.1398 4.34592 18.9924 4.25025 18.6488 4.11759L18.4349 4.035L12.0599 4.0308C8.55364 4.02849 5.65789 4.03245 5.62489 4.03962Z" fill="black"/>
</svg>
