<svg width="24" height="24" viewBox="0 0 24 24" fill="none" xmlns="http://www.w3.org/2000/svg">
<path fill-rule="evenodd" clip-rule="evenodd" d="M11.64 4.00772C9.9104 4.15661 8.49488 4.69274 7.17005 5.70074C6.64283 6.10187 6.20369 6.55052 5.76926 7.13186C4.22978 9.19193 3.75557 11.8503 4.48694 14.3204C4.88609 15.6684 5.67209 16.9597 6.62222 17.8284C7.89518 18.9924 9.50852 19.7238 11.31 19.9539C11.7102 20.005 12.9122 20.0056 13.275 19.9548C14.6491 19.7627 15.851 19.2748 16.9037 18.4818C18.4007 17.3541 19.4429 15.5222 19.7585 13.4641C19.8226 13.0459 19.848 11.7078 19.8019 11.1839C19.7825 10.9645 19.7456 10.7006 19.7197 10.5975L19.6728 10.41H15.9564H12.24V12V13.59H14.4571H16.6742L16.614 13.7907C16.28 14.904 15.427 15.9086 14.36 16.445C13.0755 17.0908 11.443 17.0621 10.0531 16.3692C9.24833 15.9679 8.64464 15.4438 8.18234 14.745C7.16957 13.214 7.0685 11.3617 7.90814 9.71999C8.39906 8.76017 9.06275 8.10101 10.005 7.63745C10.8164 7.23833 11.501 7.08869 12.375 7.11944C13.409 7.15583 14.2871 7.47548 15.0793 8.10383C15.1806 8.18423 15.2691 8.24999 15.276 8.24999C15.2937 8.24999 17.4433 6.03209 17.4534 6.00341C17.4662 5.9672 16.9153 5.53607 16.545 5.29256C15.5482 4.63694 14.4386 4.2242 13.2438 4.06454C12.8985 4.0184 11.9192 3.98369 11.64 4.00772Z" fill="black"/>
</svg>
