<svg width="20" height="20" viewBox="0 0 20 20" fill="none" xmlns="http://www.w3.org/2000/svg">
<path fill-rule="evenodd" clip-rule="evenodd" d="M3.29435 1.68125C2.62484 1.78905 2.15 2.11546 1.86441 2.66422C1.6616 3.0539 1.66664 2.9849 1.66664 5.37367C1.66664 7.32934 1.67084 7.52898 1.71561 7.69408C1.88252 8.30967 2.35876 8.80737 2.95283 8.98703C3.2409 9.07415 3.64869 9.08818 5.57592 9.07732C7.42795 9.06684 7.48802 9.06484 7.6989 9.00634C8.34834 8.82621 8.8241 8.35104 9.00446 7.70241C9.06303 7.4918 9.06503 7.4318 9.07552 5.58209C9.0864 3.65727 9.07235 3.24999 8.98512 2.96228C8.80727 2.37568 8.31829 1.90432 7.70446 1.72777C7.55366 1.68442 7.33579 1.67931 5.45071 1.67492C4.30297 1.67225 3.3326 1.67511 3.29435 1.68125ZM12.4798 1.69601C11.8052 1.79238 11.2174 2.30284 11.0129 2.9699C10.9278 3.24757 10.9136 3.6671 10.9244 5.58209C10.9348 7.4206 10.9372 7.49291 10.9943 7.69808C11.1786 8.35991 11.6426 8.82338 12.3051 9.0074C12.5108 9.06456 12.5824 9.06692 14.424 9.07732C16.6593 9.08991 16.8651 9.07732 17.2744 8.90277C17.6007 8.7636 17.9818 8.39637 18.1394 8.06923C18.3408 7.651 18.3333 7.75583 18.3333 5.37367C18.3333 3.37373 18.3299 3.2212 18.2814 3.03937C18.0976 2.35034 17.5253 1.82301 16.8341 1.70574C16.6284 1.67083 16.2576 1.66438 14.6221 1.66722C13.5414 1.66911 12.5773 1.68206 12.4798 1.69601ZM3.5237 5.36653L3.53085 7.20777H5.36724H7.20363V5.37367V3.53958L5.36009 3.53244L3.51655 3.52529L3.5237 5.36653ZM12.7952 3.56042C12.7878 3.57954 12.7851 4.40799 12.7891 5.40146L12.7963 7.20777H14.6327H16.469L16.4762 5.36672L16.4833 3.52568H14.6459C13.2016 3.52568 12.8056 3.5331 12.7952 3.56042ZM3.30826 10.9465C3.05267 10.9772 2.89802 11.0203 2.7035 11.1147C2.21021 11.3544 1.85899 11.7784 1.71561 12.3071C1.67084 12.4722 1.66664 12.6718 1.66664 14.6275C1.66664 16.6274 1.67003 16.78 1.71853 16.9618C1.88834 17.5985 2.39254 18.1021 3.03002 18.2717C3.21207 18.3201 3.3648 18.3235 5.36724 18.3235C7.32213 18.3235 7.52552 18.3192 7.69055 18.2747C8.30301 18.1097 8.80607 17.6295 8.98512 17.0389C9.07235 16.7512 9.0864 16.3439 9.07552 14.4191C9.06503 12.5694 9.06303 12.5094 9.00446 12.2988C8.82413 11.6502 8.34862 11.1752 7.6989 10.9947C7.48649 10.9357 7.43949 10.9343 5.49245 10.9288C4.39827 10.9257 3.41538 10.9337 3.30826 10.9465ZM12.5988 10.946C11.813 11.0288 11.2062 11.5407 10.9954 12.2988C10.9369 12.5094 10.9349 12.5694 10.9244 14.4191C10.9136 16.3341 10.9278 16.7536 11.0129 17.0313C11.2244 17.7213 11.8105 18.2139 12.5334 18.3093C12.6937 18.3304 13.4098 18.3374 14.7857 18.3311C16.7231 18.3222 16.8107 18.3196 16.9989 18.2648C17.5031 18.1181 17.9157 17.7774 18.1395 17.3231C18.34 16.9159 18.3333 17.0105 18.3333 14.6275C18.3333 12.6718 18.3291 12.4722 18.2843 12.3071C18.2075 12.0241 18.0597 11.7519 17.8712 11.5463C17.5299 11.1744 17.1933 11.0072 16.6638 10.9467C16.3772 10.914 12.9085 10.9134 12.5988 10.946ZM3.53569 12.7979C3.52537 12.8081 3.51694 13.6399 3.51694 14.6462V16.4759L5.36028 16.4687L7.20363 16.4616V14.6275V12.7934L5.37904 12.7863C4.37551 12.7823 3.54599 12.7875 3.53569 12.7979ZM12.7952 12.8141C12.7879 12.8333 12.7851 13.6618 12.7891 14.6553L12.7963 16.4616L14.6398 16.4687L16.4833 16.4759L16.4762 14.6346L16.469 12.7934L14.6388 12.7863C13.1894 12.7806 12.8058 12.7864 12.7952 12.8141Z" fill="black"/>
</svg>
