<svg width="24" height="24" viewBox="0 0 24 24" fill="none" xmlns="http://www.w3.org/2000/svg">
<path fill-rule="evenodd" clip-rule="evenodd" d="M7.33503 3.06495C6.2901 3.18303 5.229 3.642 4.36779 4.34841C4.0521 4.60737 3.51945 5.16609 3.27951 5.49C2.65278 6.33606 2.27529 7.21077 2.08197 8.265C2.01609 8.62431 1.99131 9.6282 2.03883 10.0139C2.18238 11.1795 2.62158 12.2492 3.33636 13.174C4.31049 14.4344 7.04406 17.102 10.5259 20.19C11.1403 20.7349 11.2704 20.827 11.5667 20.9268C11.9758 21.0645 12.4149 21.0014 12.7923 20.7507C12.9542 20.6432 13.9025 19.8086 15.045 18.7682C16.4922 17.4504 17.4838 16.5092 18.5866 15.4065C20.328 13.6652 20.8783 12.9988 21.3376 12.075C21.6374 11.4721 21.8495 10.7857 21.9429 10.1161C22.0025 9.68856 22.0037 8.84919 21.9453 8.4384C21.7503 7.06647 21.1734 5.88936 20.2083 4.89417C18.5142 3.14727 16.1872 2.59341 13.98 3.41169C13.3976 3.6276 12.7089 4.01691 12.2341 4.39851C12.1236 4.48734 12.0183 4.56 12 4.56C11.9818 4.56 11.8764 4.48737 11.7659 4.3986C11.0438 3.81837 10.0094 3.3297 9.12828 3.15246C8.53566 3.03324 7.89321 3.00189 7.33503 3.06495ZM7.36503 5.08665C5.96322 5.3235 4.68588 6.50664 4.20597 8.0127C3.96033 8.78358 3.94836 9.71688 4.17423 10.485C4.32816 11.0085 4.61298 11.5575 4.9548 11.9897C5.82519 13.0901 8.36814 15.5775 11.2353 18.1328C11.5487 18.4121 11.8475 18.6799 11.8993 18.728L11.9935 18.8155L12.5743 18.2963C15.7671 15.4424 18.2469 13.0152 19.0836 11.925C19.5126 11.3659 19.8136 10.6769 19.9354 9.975C19.9988 9.60942 19.9981 8.94027 19.934 8.56239C19.6489 6.88203 18.3169 5.45658 16.71 5.11221C16.3585 5.03688 15.652 5.03676 15.3016 5.11197C14.4107 5.30319 13.7072 5.7012 12.9839 6.423C12.4742 6.93174 12.3971 6.975 12 6.975C11.6052 6.975 11.5187 6.92763 11.0435 6.45144C10.6464 6.05346 10.4083 5.86158 10.0216 5.62776C9.22071 5.14365 8.22642 4.94112 7.36503 5.08665Z" fill="black"/>
</svg>
