<svg width="800" height="800" viewBox="0 0 800 800" fill="none" xmlns="http://www.w3.org/2000/svg">
<path d="M447.368 450H352.632C351.158 450 350 448.167 350 445.833V354.167C350 351.833 351.158 350 352.632 350H447.368C448.842 350 450 351.833 450 354.167V445.833C450 448.167 448.842 450 447.368 450Z" stroke="#737373" stroke-width="8" stroke-miterlimit="10" stroke-linecap="round" stroke-linejoin="round"/>
<path d="M360.526 435.197L387.684 400.987C388.737 399.671 390.737 399.671 391.79 400.987L418.947 435.197" stroke="#737373" stroke-width="8" stroke-miterlimit="10" stroke-linecap="round" stroke-linejoin="round"/>
<path d="M422.105 422.092L423.473 420.145C424.526 418.829 426.526 418.829 427.578 420.145L439.473 435.197" stroke="#737373" stroke-width="8" stroke-miterlimit="10" stroke-linecap="round" stroke-linejoin="round"/>
<path d="M427.393 384.438C427.393 389.102 423.612 392.883 418.947 392.883C414.283 392.883 410.502 389.102 410.502 384.438C410.502 379.773 414.283 375.992 418.947 375.992C423.612 375.992 427.393 379.773 427.393 384.438Z" stroke="#737373" stroke-width="8"/>
</svg>
