<svg width="24" height="24" viewBox="0 0 24 24" fill="none" xmlns="http://www.w3.org/2000/svg">
<path fill-rule="evenodd" clip-rule="evenodd" d="M8.82721 2.00928C6.05339 2.11401 4.92074 2.48929 3.70259 3.70713C2.74916 4.66032 2.32163 5.57609 2.13661 7.06147C2.01138 8.06689 2 8.47889 2 12.0011C2 15.5234 2.01138 15.9354 2.13661 16.9408C2.32163 18.4262 2.74916 19.342 3.70259 20.2952C4.81298 21.4053 5.777 21.7779 7.99258 21.9536C8.76214 22.0147 15.2213 22.0158 15.9883 21.955C17.813 21.8104 18.6723 21.5628 19.5771 20.9208C19.9838 20.6322 20.6321 19.9841 20.9207 19.5775C21.5629 18.673 21.8106 17.8139 21.9552 15.9896C22.0149 15.236 22.0149 8.76632 21.9552 8.01269C21.8106 6.18838 21.5629 5.32931 20.9207 4.42475C20.6307 4.01619 19.9818 3.36822 19.5771 3.08306C18.6669 2.44157 17.863 2.20496 16.0717 2.05133C15.6881 2.01846 9.53106 1.98268 8.82721 2.00928ZM8.8439 3.69237C7.69215 3.73096 6.82391 3.83406 6.30251 3.99416C5.56787 4.21972 4.84169 4.79365 4.35343 5.53457C3.7713 6.41801 3.65379 7.50407 3.65379 12.0011C3.65379 16.137 3.75494 17.3105 4.18698 18.1879C4.51004 18.844 5.32173 19.6167 5.9728 19.8881C6.84384 20.2512 8.06823 20.3438 11.9988 20.3438C17.2195 20.3438 18.0198 20.2052 19.1115 19.1124C20.2038 18.0191 20.3435 17.2125 20.3435 12.0011C20.3435 8.39655 20.257 7.02178 19.9793 6.21478C19.739 5.51652 19.1752 4.82423 18.467 4.3578C17.5722 3.76844 16.473 3.65336 11.8318 3.66307C10.5924 3.66564 9.24786 3.67886 8.8439 3.69237ZM17.0234 5.39693C16.2343 5.66818 15.9265 6.5946 16.3954 7.28706C16.544 7.50651 16.7626 7.66898 17.0308 7.7593C17.983 8.07998 18.9031 7.19347 18.6234 6.22479C18.4287 5.55023 17.6897 5.1679 17.0234 5.39693ZM11.3379 7.03166C9.13198 7.32841 7.37072 9.06941 7.04278 11.2774C6.65428 13.8932 8.37992 16.3463 11.0076 16.9137C11.5003 17.0201 12.4972 17.0201 12.9899 16.9137C14.9848 16.4829 16.4817 14.9864 16.9126 12.992C17.0191 12.4995 17.0191 11.5028 16.9126 11.0103C16.4763 8.99081 14.9403 7.4729 12.9335 7.07806C12.5937 7.0112 11.6862 6.9848 11.3379 7.03166ZM11.5314 8.69991C10.515 8.83071 9.52655 9.53331 9.04685 10.4658C8.09327 12.3195 9.02948 14.5598 11.0182 15.1833C12.3298 15.5945 13.8149 15.1214 14.6371 14.0305C15.9109 12.3405 15.3642 9.96797 13.483 9.02158C12.8912 8.7239 12.2133 8.61216 11.5314 8.69991Z" fill="black"/>
</svg>
