<svg width="24" height="24" viewBox="0 0 24 24" fill="none" xmlns="http://www.w3.org/2000/svg">
<path fill-rule="evenodd" clip-rule="evenodd" d="M11.3707 5.00603C11.3204 5.01099 11.1609 5.02567 11.0163 5.03868C10.057 5.12487 9.04919 5.37643 8.17927 5.74688C5.91013 6.71314 4.39185 8.4465 4.05287 10.4579C4.00167 10.7617 3.9837 11.3747 4.01665 11.6937C4.1233 12.7262 4.51234 13.6554 5.20321 14.5279C5.43298 14.8181 6.00907 15.3869 6.30596 15.6168C6.61673 15.8575 6.95624 16.0839 7.30791 16.285C7.46302 16.3736 7.60123 16.45 7.61504 16.4546C7.63871 16.4625 7.48301 17.1341 7.04652 18.9069C6.8963 19.5171 6.88009 19.621 6.92761 19.6685C6.97044 19.7113 7.08381 19.7005 7.20887 19.6417C7.27176 19.6121 8.0744 19.0955 8.99252 18.4936C10.0824 17.7792 10.6817 17.3994 10.719 17.3997C10.7504 17.3999 10.9254 17.4147 11.1077 17.4326C11.5696 17.478 12.5467 17.4727 13.0172 17.4223C14.2426 17.291 15.3081 16.9872 16.3215 16.4804C18.0314 15.6252 19.2583 14.2983 19.7625 12.759C20.0527 11.8728 20.0781 10.8503 19.8324 9.93795C19.4731 8.60325 18.5199 7.36051 17.1718 6.46912C15.9902 5.68784 14.6191 5.21533 13.0172 5.03731C12.7911 5.01218 11.5477 4.98855 11.3707 5.00603ZM10.1016 9.45042C9.91426 9.55051 9.91234 9.55444 9.21088 11.2767C8.84553 12.1738 8.54661 12.9383 8.54661 12.9755C8.54661 13.0638 8.62411 13.2143 8.69273 13.2592C8.78612 13.3204 8.89108 13.3402 8.98644 13.3145C9.14276 13.2724 9.20057 13.1955 9.34632 12.8357L9.48067 12.5042L10.2771 12.4984L11.0734 12.4927L11.1975 12.83C11.2939 13.092 11.3387 13.1837 11.3983 13.2407C11.5803 13.415 11.8681 13.3463 11.9644 13.1056C12.0135 12.9829 12.0065 12.9495 11.8394 12.5072C11.764 12.3077 11.7023 12.1224 11.7023 12.0955C11.7023 12.0685 11.6768 11.9986 11.6457 11.9401C11.6145 11.8816 11.4087 11.3517 11.1883 10.7626C10.9678 10.1735 10.7592 9.65112 10.7247 9.60178C10.5965 9.41884 10.2969 9.34608 10.1016 9.45042ZM6.2627 9.45097C6.0863 9.49366 5.97663 9.64525 5.99231 9.82466C6.00423 9.96109 6.06105 10.042 6.19174 10.1088C6.28636 10.1572 6.32037 10.1603 6.75574 10.1603H7.21903L7.22538 11.6295C7.23119 12.9735 7.23513 13.1049 7.27142 13.1712C7.40332 13.4123 7.75392 13.4166 7.89361 13.1787C7.93953 13.1006 7.94079 13.0647 7.94714 11.6311L7.95366 10.1635L8.44288 10.1562C8.89717 10.1494 8.93675 10.1454 8.99662 10.101C9.22748 9.92976 9.21978 9.62718 8.98102 9.48691C8.90316 9.44118 8.86751 9.43985 7.62049 9.43613C6.91617 9.43402 6.30516 9.4407 6.2627 9.45097ZM15.1084 9.48003C15.0664 9.50839 15.0108 9.56754 14.985 9.61152C14.939 9.68982 14.9379 9.7251 14.931 11.2922C14.9272 12.1726 14.9306 12.9479 14.9387 13.015C14.966 13.244 15.1735 13.3955 15.3827 13.3391C15.4958 13.3087 15.6038 13.2027 15.6345 13.0921C15.6475 13.0452 15.6581 12.7714 15.6582 12.4807L15.6583 11.9541L15.8178 11.7959C15.9054 11.7089 15.9811 11.6423 15.9859 11.6479C15.9907 11.6535 16.2474 12.0185 16.5563 12.459C17.1566 13.3149 17.1786 13.3388 17.3653 13.3388C17.6088 13.3388 17.7922 13.0487 17.6826 12.8367C17.664 12.8008 17.3902 12.4035 17.0741 11.9538L16.4994 11.1364L17.0817 10.5696C17.4045 10.2555 17.677 9.9715 17.6931 9.93253C17.7325 9.83754 17.7113 9.67777 17.6474 9.58808C17.5538 9.45659 17.3421 9.41102 17.1981 9.4914C17.1586 9.5134 16.7986 9.84918 16.3981 10.2376L15.6698 10.9437L15.6583 10.3176C15.6478 9.73887 15.6434 9.68543 15.5999 9.61152C15.5307 9.49373 15.4212 9.42851 15.2925 9.42851C15.2187 9.42851 15.1608 9.44472 15.1084 9.48003ZM12.6284 9.48346C12.5424 9.5214 12.4913 9.57822 12.4464 9.68586C12.4158 9.75894 12.4112 9.98387 12.4112 11.3895V13.009L12.4626 13.1097C12.5654 13.3108 12.5286 13.3036 13.4945 13.311L14.3458 13.3175L14.4226 13.2653C14.5502 13.1784 14.595 13.0995 14.595 12.9615C14.595 12.8293 14.5544 12.7529 14.4376 12.6657C14.3785 12.6215 14.3353 12.6178 13.753 12.6071L13.1315 12.5956L13.1201 11.1311C13.1072 9.4892 13.1185 9.58961 12.9377 9.49741C12.8343 9.44466 12.7273 9.43983 12.6284 9.48346ZM10.2758 10.5512C10.0103 11.1931 9.78842 11.7603 9.7988 11.7707C9.82528 11.7972 10.7876 11.7851 10.7876 11.7583C10.7876 11.7312 10.3331 10.4985 10.3172 10.4826C10.3122 10.4775 10.2935 10.5084 10.2758 10.5512Z" fill="black"/>
</svg>
