<svg width="24" height="24" viewBox="0 0 24 24" fill="none" xmlns="http://www.w3.org/2000/svg">
<path fill-rule="evenodd" clip-rule="evenodd" d="M11.4277 1.72497C10.931 1.82397 10.5391 2.02398 10.0091 2.44893C9.52554 2.83668 2.30535 9.26241 2.19816 9.40041C1.98357 9.67674 1.93875 10.0789 2.08599 10.407C2.18106 10.6189 2.38929 10.8292 2.60214 10.9285L2.74491 10.995H11.9999H21.2549L21.3977 10.9285C21.6105 10.8292 21.8188 10.6189 21.9138 10.407C22.0611 10.0789 22.0162 9.67656 21.8017 9.40053C21.7109 9.28374 14.7177 3.05094 14.0999 2.53617C13.3313 1.8957 12.7846 1.67628 11.9741 1.68282C11.7821 1.68438 11.5361 1.70334 11.4277 1.72497ZM11.7251 3.71751C11.6204 3.75144 11.3984 3.90219 11.1749 4.09128C11.0759 4.17501 9.79389 5.31033 8.32599 6.61425L5.65704 8.985L8.82849 8.99265C10.5728 8.99685 13.4271 8.99685 15.1713 8.99265L18.3428 8.985L15.6738 6.61353C12.748 4.01376 12.6873 3.96096 12.4536 3.8118C12.3088 3.7194 12.2673 3.70797 12.0486 3.70026C11.9146 3.69555 11.769 3.70332 11.7251 3.71751ZM5.72991 12.0263C5.34567 12.1525 5.08443 12.4471 5.01036 12.8376C4.99167 12.9361 4.97991 13.7678 4.97991 14.9891V16.98L3.98241 16.9806C3.29394 16.981 2.92863 16.993 2.80329 17.0193C2.38596 17.1068 2.09124 17.4087 2.01372 17.8281C1.91532 18.3604 2.26263 18.8673 2.80329 18.9807C3.04749 19.0319 20.89 19.0383 21.166 18.9873C21.6025 18.9066 21.9074 18.6037 21.9863 18.1725C22.0864 17.6259 21.7253 17.1148 21.1669 17.0126C21.0621 16.9934 20.5838 16.98 20.0044 16.98H19.0199V14.9891C19.0199 13.7678 19.0082 12.9361 18.9895 12.8376C18.9272 12.5091 18.7386 12.2539 18.4434 12.0987C18.3024 12.0245 18.2535 12.0153 17.9999 12.0153C17.7463 12.0153 17.6975 12.0245 17.5564 12.0987C17.2612 12.2539 17.0727 12.5091 17.0104 12.8376C16.9917 12.9361 16.9799 13.7678 16.9799 14.9891V16.98H15.9899H14.9999V14.8961C14.9999 12.8335 14.9993 12.8105 14.935 12.6388C14.8455 12.3995 14.5984 12.1539 14.3547 12.0619C14.209 12.007 14.1319 11.9965 13.9478 12.0068C13.5596 12.0284 13.2743 12.2164 13.1037 12.5631L13.0049 12.7637L12.9966 14.8718L12.9883 16.98H11.9999H11.0115L11.0032 14.8718L10.9949 12.7637L10.8962 12.5631C10.7255 12.2164 10.4402 12.0284 10.052 12.0068C9.86793 11.9965 9.79086 12.007 9.64512 12.0619C9.40146 12.1539 9.15435 12.3995 9.0648 12.6388C9.00057 12.8105 8.99991 12.8335 8.99991 14.8961V16.98H8.00991H7.01991V14.9891C7.01991 13.7678 7.00815 12.9361 6.98946 12.8376C6.92694 12.508 6.73641 12.2509 6.44343 12.1009C6.31794 12.0367 6.2349 12.0179 6.04491 12.0107C5.91291 12.0058 5.77116 12.0128 5.72991 12.0263ZM2.78907 20.0208C2.26191 20.1343 1.91667 20.6469 2.01372 21.1719C2.09124 21.5913 2.38596 21.8932 2.80329 21.9807C3.04692 22.0318 20.889 22.0383 21.1669 21.9874C21.725 21.8852 22.0869 21.3733 21.9862 20.8285C21.9061 20.3955 21.6016 20.0922 21.1669 20.0126C20.9005 19.9638 3.0165 19.9717 2.78907 20.0208Z" fill="black"/>
</svg>
