<svg width="24" height="24" viewBox="0 0 24 24" fill="none" xmlns="http://www.w3.org/2000/svg">
<path fill-rule="evenodd" clip-rule="evenodd" d="M7.3071 6.03442C4.83417 6.32233 2.7834 8.13058 2.17452 10.56C1.94997 11.456 1.94997 12.544 2.17452 13.44C2.78424 15.8727 4.79952 17.6522 7.28997 17.9568C7.58616 17.9931 7.93926 18.0008 8.96997 17.9939L10.275 17.985L10.425 17.9107C10.7354 17.757 10.957 17.4414 10.9976 17.0951C11.0435 16.7046 10.7953 16.2752 10.4157 16.0888L10.245 16.005L8.81997 15.9878L7.39497 15.9707L7.04976 15.8792C6.25356 15.6684 5.64024 15.3103 5.10288 14.7426C4.38606 13.9854 4.01688 13.053 4.01688 12C4.01688 10.0955 5.27943 8.53546 7.18794 8.08177C7.35771 8.04142 7.65135 8.02918 8.81997 8.01379L10.245 7.99501L10.4157 7.91119C10.7953 7.72477 11.0435 7.29544 10.9976 6.9049C10.957 6.55858 10.7354 6.24301 10.425 6.08929L10.275 6.01501L8.90997 6.01087C8.15922 6.00859 7.43793 6.01918 7.3071 6.03442ZM13.74 6.0268C13.0096 6.262 12.7607 7.11307 13.2619 7.66147C13.353 7.76104 13.4818 7.86085 13.5843 7.91119L13.755 7.99501L15.18 8.0134C16.4762 8.03014 16.628 8.03737 16.86 8.09338C18.0622 8.38375 19.0291 9.14131 19.5724 10.2185C20.125 11.3143 20.125 12.6857 19.5724 13.7815C19.0257 14.8655 18.0606 15.6184 16.8483 15.9067C16.5946 15.9671 16.4735 15.9729 15.165 15.9884L13.755 16.005L13.5843 16.0888C13.4818 16.1392 13.353 16.239 13.2619 16.3385C12.8109 16.8321 12.9566 17.5802 13.5664 17.9015L13.725 17.985L15.03 17.9939C16.0654 18.0009 16.4137 17.9931 16.7161 17.9564C19.4153 17.6282 21.5496 15.5377 21.9435 12.8362C22.0045 12.4172 22.0045 11.5823 21.9434 11.1638C21.6931 9.45007 20.7539 7.96093 19.32 7.00426C18.6142 6.53341 17.8732 6.2389 16.965 6.06826C16.778 6.03313 16.4033 6.02089 15.27 6.01291C14.4697 6.00727 13.7812 6.01354 13.74 6.0268ZM7.67643 11.0512C7.40736 11.1479 7.21233 11.3314 7.08405 11.6086C7.02306 11.7405 7.0071 11.8217 7.0071 12C7.0071 12.3761 7.20102 12.7013 7.53585 12.8869L7.69497 12.975H12H16.305L16.4641 12.8869C17.1717 12.4949 17.1717 11.5051 16.4641 11.1131L16.305 11.025L12.045 11.0186C8.61282 11.0135 7.76388 11.0198 7.67643 11.0512Z" fill="black"/>
</svg>
