<svg width="24" height="24" viewBox="0 0 24 24" fill="none" xmlns="http://www.w3.org/2000/svg">
<path fill-rule="evenodd" clip-rule="evenodd" d="M2.73007 4.52697C2.35018 4.64778 2.08459 4.94695 2.01052 5.33752C1.9711 5.54533 1.9711 6.45444 2.01052 6.66225C2.0728 6.99069 2.26123 7.24575 2.55655 7.40137L2.71507 7.48488H3.49507H4.27507L4.4449 7.40148C4.64854 7.30147 4.80886 7.13202 4.91602 6.90348C4.99468 6.73572 4.99507 6.73128 4.99507 5.99988C4.99507 5.26849 4.99468 5.26405 4.91602 5.09629C4.80886 4.86775 4.64854 4.6983 4.4449 4.59828L4.27507 4.51488L3.54007 4.50901C3.13582 4.5058 2.77132 4.51386 2.73007 4.52697ZM7.81072 5.01106C7.50871 5.07085 7.20157 5.3173 7.07098 5.60461C6.98077 5.80309 6.98104 6.19728 7.07152 6.39639C7.16695 6.60642 7.38022 6.81789 7.59805 6.91848L7.78507 7.00488H14.5051H21.2251L21.3937 6.92584C21.8353 6.71875 22.079 6.26832 21.9888 5.82582C21.8998 5.38857 21.6007 5.09296 21.1661 5.01262C20.954 4.97341 8.00863 4.97191 7.81072 5.01106ZM2.73007 10.527C2.35018 10.6478 2.08459 10.9469 2.01052 11.3375C1.9711 11.5453 1.9711 12.4544 2.01052 12.6623C2.0728 12.9907 2.26123 13.2458 2.55655 13.4014L2.71507 13.4849H3.49507H4.27507L4.4449 13.4015C4.64854 13.3015 4.80886 13.132 4.91602 12.9035C4.99468 12.7357 4.99507 12.7313 4.99507 11.9999C4.99507 11.2685 4.99468 11.264 4.91602 11.0963C4.80886 10.8677 4.64854 10.6983 4.4449 10.5983L4.27507 10.5149L3.54007 10.509C3.13582 10.5058 2.77132 10.5139 2.73007 10.527ZM7.81072 11.0111C7.50871 11.0708 7.20157 11.3173 7.07098 11.6046C6.98077 11.8031 6.98104 12.1973 7.07152 12.3964C7.16695 12.6064 7.38022 12.8179 7.59805 12.9185L7.78507 13.0049H14.5051H21.2251L21.3937 12.9258C21.8353 12.7187 22.079 12.2683 21.9888 11.8258C21.8998 11.3886 21.6007 11.093 21.1661 11.0126C20.954 10.9734 8.00863 10.9719 7.81072 11.0111ZM2.73007 16.527C2.35018 16.6478 2.08459 16.9469 2.01052 17.3375C1.9711 17.5453 1.9711 18.4544 2.01052 18.6623C2.0728 18.9907 2.26123 19.2458 2.55655 19.4014L2.71507 19.4849H3.49507H4.27507L4.4449 19.4015C4.64854 19.3015 4.80886 19.132 4.91602 18.9035C4.99468 18.7357 4.99507 18.7313 4.99507 17.9999C4.99507 17.2685 4.99468 17.264 4.91602 17.0963C4.80886 16.8677 4.64854 16.6983 4.4449 16.5983L4.27507 16.5149L3.54007 16.509C3.13582 16.5058 2.77132 16.5139 2.73007 16.527ZM7.81072 17.0111C7.50871 17.0708 7.20157 17.3173 7.07098 17.6046C6.98077 17.8031 6.98104 18.1973 7.07152 18.3964C7.16695 18.6064 7.38022 18.8179 7.59805 18.9185L7.78507 19.0049H14.5051H21.2251L21.3937 18.9258C21.8327 18.72 22.0786 18.2663 21.9892 17.8274C21.8997 17.3885 21.6013 17.093 21.1661 17.0126C20.954 16.9734 8.00863 16.9719 7.81072 17.0111Z" fill="black"/>
</svg>
