<svg width="24" height="24" viewBox="0 0 24 24" fill="none" xmlns="http://www.w3.org/2000/svg">
<path fill-rule="evenodd" clip-rule="evenodd" d="M3.13945 11.0307C2.7046 11.1171 2.31041 11.4423 2.11008 11.8798C2.02237 12.0715 2 12.187 2 12.4487C2 12.7313 2.01903 12.8157 2.13682 13.055C2.29661 13.3795 2.53075 13.607 2.86764 13.765L3.10846 13.8779H12H20.8915L21.1324 13.765C21.4693 13.607 21.7034 13.3795 21.8632 13.055C21.9817 12.8143 22 12.7321 22 12.4424C22 12.1526 21.9817 12.0704 21.8632 11.8297C21.7034 11.5052 21.4693 11.2778 21.1324 11.1198L20.8915 11.0069L12.1071 11.0005C7.2757 10.9971 3.24023 11.0106 3.13945 11.0307Z" fill="black"/>
</svg>
