<svg width="24" height="24" viewBox="0 0 24 24" fill="none" xmlns="http://www.w3.org/2000/svg">
<path d="M12.9393 7.31341C13.2464 6.9375 13.1847 6.38856 12.8016 6.08728C12.4187 5.78602 11.8594 5.84651 11.5525 6.22241L12.9393 7.31341ZM5.25721 15.3264L5.93028 15.8959C5.93723 15.888 5.94402 15.88 5.95067 15.8719L5.25721 15.3264ZM5.05459 15.8126L4.16762 15.7557L4.16684 15.7722L5.05459 15.8126ZM4.8887 19.3283L4.00095 19.2879C3.99891 19.3312 4.00015 19.3746 4.00469 19.4177L4.8887 19.3283ZM5.82124 20.1273L5.85029 20.999C5.90956 20.9971 5.96847 20.9894 6.02618 20.9759L5.82124 20.1273ZM9.37602 19.3004L9.58101 20.1491L9.59476 20.1458L9.37602 19.3004ZM9.83222 19.0166L10.5178 19.5717L10.5255 19.5623L9.83222 19.0166ZM17.6825 10.8026C17.9895 10.4267 17.928 9.8778 17.5452 9.57642C17.1623 9.27504 16.6029 9.3354 16.2959 9.71126L17.6825 10.8026ZM11.5562 6.22218C11.2492 6.59798 11.3105 7.14695 11.6935 7.44835C12.0764 7.74974 12.6356 7.68942 12.9428 7.31364L11.5562 6.22218ZM14.1311 4.46517L14.8244 5.01091C14.8361 4.99662 14.8473 4.98196 14.8581 4.96697L14.1311 4.46517ZM16.0614 4.09302L16.6299 3.42262C16.6016 3.3995 16.5719 3.37813 16.5409 3.35863L16.0614 4.09302ZM18.7121 6.25851L19.341 5.64231C19.3217 5.62334 19.3016 5.60527 19.2806 5.58811L18.7121 6.25851ZM18.7014 8.1635L18.0793 7.54055C18.0542 7.56479 18.0305 7.59047 18.0083 7.61746L18.7014 8.1635ZM16.2959 9.71126C15.9886 10.0869 16.0501 10.6355 16.4329 10.9371C16.8156 11.2386 17.3752 11.1783 17.6825 10.8026L16.2959 9.71126ZM13.1283 6.63865C13.0556 6.16224 12.6032 5.8339 12.1178 5.9053C11.6324 5.97668 11.2979 6.42076 11.3706 6.89717L13.1283 6.63865ZM17.1089 11.1212C17.5952 11.0564 17.9358 10.6168 17.8698 10.1395C17.8037 9.66211 17.3559 9.32772 16.8695 9.39258L17.1089 11.1212ZM11.5525 6.22241L4.56375 14.7809L5.95067 15.8719L12.9393 7.31341L11.5525 6.22241ZM4.58413 14.7568C4.33843 15.0365 4.19211 15.3871 4.16762 15.7557L5.9414 15.8693C5.94075 15.8791 5.93685 15.8885 5.93028 15.8959L4.58413 14.7568ZM4.16684 15.7722L4.00095 19.2879L5.77644 19.3686L5.94234 15.8529L4.16684 15.7722ZM4.00469 19.4177C4.10147 20.3387 4.90751 21.0293 5.85029 20.999L5.79218 19.2555C5.78839 19.2556 5.78653 19.255 5.78532 19.2546C5.78363 19.254 5.78139 19.2528 5.7791 19.2508C5.7768 19.2489 5.77532 19.2469 5.77448 19.2454C5.77387 19.2442 5.77309 19.2425 5.7727 19.2387L4.00469 19.4177ZM6.02618 20.9759L9.58101 20.1491L9.17103 18.4516L5.61629 19.2785L6.02618 20.9759ZM9.59476 20.1458C9.95675 20.0555 10.2801 19.8545 10.5178 19.5717L9.14662 18.4615C9.14946 18.4583 9.15313 18.4559 9.15728 18.4549L9.59476 20.1458ZM10.5255 19.5623L17.6825 10.8026L16.2959 9.71126L9.13892 18.4709L10.5255 19.5623ZM12.9428 7.31364L14.8244 5.01091L13.4378 3.91945L11.5562 6.22218L12.9428 7.31364ZM14.8581 4.96697C15.0223 4.73772 15.3414 4.67619 15.5818 4.82741L16.5409 3.35863C15.499 2.70333 14.1161 2.96996 13.4042 3.96339L14.8581 4.96697ZM15.4929 4.76341L18.1435 6.92891L19.2806 5.58811L16.6299 3.42262L15.4929 4.76341ZM18.0831 6.87472C18.173 6.96322 18.2233 7.08335 18.2226 7.2084L20 7.21798C20.0033 6.62752 19.7661 6.06023 19.341 5.64231L18.0831 6.87472ZM18.2226 7.2084C18.222 7.33344 18.1703 7.45302 18.0793 7.54055L19.3235 8.78645C19.7531 8.37314 19.9966 7.80845 20 7.21798L18.2226 7.2084ZM18.0083 7.61746L16.2959 9.71126L17.6825 10.8026L19.3945 8.70954L18.0083 7.61746ZM11.3706 6.89717C11.7845 9.60846 14.341 11.4903 17.1089 11.1212L16.8695 9.39258C15.065 9.63324 13.3983 8.40632 13.1283 6.63865L11.3706 6.89717Z" fill="black"/>
</svg>
