<svg width="24" height="24" viewBox="0 0 24 24" fill="none" xmlns="http://www.w3.org/2000/svg">
<path fill-rule="evenodd" clip-rule="evenodd" d="M3.61755 2.05936C2.94771 2.20294 2.34885 2.75668 2.16222 3.40501C2.03409 3.85006 1.96479 5.66317 2.03766 6.66379C2.29668 10.2211 3.62502 13.459 5.96223 16.23C6.33654 16.6738 7.32609 17.6633 7.76988 18.0377C8.83911 18.9395 9.93165 19.6649 11.1073 20.2537C12.7585 21.0806 14.4721 21.6092 16.2899 21.8522C17.1809 21.9714 17.7195 21.9991 18.8026 21.9815C20.1122 21.9602 20.4999 21.9109 20.8944 21.7152C21.4299 21.4496 21.8251 20.9402 21.9427 20.3638C22.0113 20.0276 22.0126 16.0452 21.9442 15.755C21.8092 15.1823 21.4103 14.6703 20.9087 14.4259C20.6686 14.3089 16.7647 12.881 16.4399 12.7914C16.3041 12.7539 16.1402 12.7377 15.8999 12.7379C15.4627 12.7384 15.1712 12.826 14.8266 13.0604C14.52 13.2689 14.3295 13.5035 13.9499 14.1399C13.7766 14.4303 13.6214 14.6684 13.6049 14.6689C13.5884 14.6694 13.3839 14.5505 13.1504 14.4046C11.8929 13.6187 10.8361 12.624 9.96342 11.405C9.72453 11.0712 9.32988 10.4394 9.32988 10.3906C9.32988 10.3765 9.38727 10.3343 9.45738 10.2969C9.74196 10.1452 10.4785 9.66592 10.6316 9.53284C11.1253 9.10357 11.3694 8.36758 11.2366 7.70821C11.1706 7.37995 9.72909 3.40402 9.549 3.05326C9.3798 2.7238 9.03408 2.37982 8.71674 2.22526C8.26788 2.00668 8.30775 2.00971 5.94258 2.01247C4.19199 2.01448 3.78894 2.02261 3.61755 2.05936ZM4.22397 4.012C4.08369 4.02313 4.083 4.0237 4.06494 4.1491C4.02519 4.42483 4.00203 5.50918 4.02348 6.09001C4.16913 10.0346 5.93673 13.745 8.92488 16.3789C11.4306 18.5875 14.6084 19.8584 17.9205 19.9766C18.4901 19.997 19.5881 19.9736 19.8481 19.9356L19.9714 19.9176L19.9904 19.7163C20.0151 19.4549 20.0156 16.5205 19.991 16.3409C19.9736 16.214 19.9627 16.1996 19.8485 16.1539C19.6726 16.0834 16.4747 14.9201 16.1778 14.8186L15.9307 14.7341L15.3704 15.6695C15.0313 16.2357 14.7623 16.6511 14.6892 16.7218C14.4409 16.9618 14.0716 17.0584 13.7549 16.9663C13.4105 16.8662 12.3857 16.3175 11.7449 15.89C10.1428 14.8216 8.75427 13.3618 7.77348 11.715C7.44786 11.1682 7.10253 10.4822 7.03359 10.245C6.94149 9.92824 7.03812 9.55903 7.27806 9.31072C7.34877 9.23758 7.76418 8.96863 8.33034 8.62951L9.26577 8.06914L9.18132 7.82209C9.07974 7.52494 7.91649 4.32727 7.84593 4.15114C7.80318 4.04452 7.78086 4.02472 7.68558 4.00897C7.56987 3.98983 4.46925 3.99256 4.22397 4.012Z" fill="black"/>
</svg>
