<svg width="24" height="24" viewBox="0 0 24 24" fill="none" xmlns="http://www.w3.org/2000/svg">
<path fill-rule="evenodd" clip-rule="evenodd" d="M2.66294 2.05399C2.48414 2.12194 2.28923 2.27086 2.18969 2.41552C2.00135 2.68927 2.01005 2.53906 2.01008 5.51629L2.01011 8.235L2.0957 8.41501C2.20016 8.63473 2.4215 8.84866 2.62589 8.9275C2.76899 8.98267 2.88632 8.985 5.52005 8.985H8.26505L8.43431 8.90191C8.63186 8.80486 8.82854 8.60383 8.92007 8.40528C8.97107 8.29467 8.98478 8.20791 8.9849 7.99501C8.98505 7.74417 8.97773 7.7115 8.88203 7.53499C8.76845 7.32553 8.6078 7.17691 8.38265 7.07307C8.2382 7.00644 8.20724 7.00467 6.93197 6.99001L5.62889 6.97501L6.22697 6.43767C6.92966 5.80636 7.15961 5.62051 7.60505 5.32401C10.0047 3.7267 13.1409 3.57223 15.7198 4.92427C16.4283 5.29573 16.9722 5.69413 17.5758 6.2836C18.2147 6.90772 18.684 7.53226 19.0758 8.28C19.6377 9.35248 19.9095 10.3628 19.982 11.6491C20.016 12.2516 20.0424 12.3704 20.1897 12.5845C20.3673 12.8427 20.6627 12.99 21.0027 12.99C21.3944 12.99 21.7313 12.782 21.9015 12.435C21.9663 12.3028 21.9763 12.2369 21.9853 11.88C21.9974 11.4049 21.9548 10.8946 21.8528 10.2902C21.5746 8.64247 20.8597 7.06318 19.7818 5.71501C19.4422 5.29027 18.7069 4.55536 18.285 4.21903C16.7465 2.99236 15.0008 2.26663 13.08 2.05516C12.5592 1.99783 11.4791 1.99732 10.95 2.05417C9.19385 2.24287 7.61132 2.84599 6.17327 3.87469C5.7614 4.16932 5.52197 4.37109 4.66733 5.14374L4.00505 5.74249L3.99005 4.22874L3.97505 2.71501L3.90161 2.56579C3.80792 2.37538 3.6245 2.19199 3.43427 2.0986C3.25121 2.00869 2.84405 1.98517 2.66294 2.05399ZM2.66294 11.0554C2.38862 11.1562 2.15144 11.3969 2.05385 11.6735C1.9955 11.8388 1.99619 12.544 2.0552 13.08C2.26505 14.986 3.00584 16.7686 4.21832 18.285C4.55675 18.7083 5.29175 19.4433 5.71505 19.7817C7.28288 21.0353 9.1145 21.7757 11.1081 21.9619C11.6744 22.0148 12.8898 21.9831 13.425 21.9014C14.9527 21.6684 16.3031 21.1523 17.535 20.3308C18.0695 19.9744 18.3399 19.7519 19.365 18.8257L19.995 18.2564L20.01 19.7707L20.025 21.285L20.0985 21.4342C20.1921 21.6245 20.3755 21.8079 20.5658 21.9016C20.6924 21.9638 20.7583 21.975 21 21.975C21.2418 21.975 21.3077 21.9638 21.4343 21.9016C21.6246 21.8079 21.808 21.6245 21.9016 21.4342L21.975 21.285L21.983 18.5298L21.991 15.7746L21.9118 15.5981C21.8139 15.38 21.5813 15.1524 21.375 15.0728C21.2309 15.0173 21.1185 15.015 18.48 15.015H15.735L15.5658 15.0981C15.3682 15.1952 15.1716 15.3962 15.08 15.5947C15.029 15.7053 15.0153 15.7921 15.0152 16.005C15.015 16.2558 15.0224 16.2885 15.1181 16.465C15.2316 16.6745 15.3923 16.8231 15.6174 16.9269C15.7619 16.9936 15.7929 16.9953 17.0681 17.01L18.3712 17.025L17.7731 17.5623C17.0583 18.2046 16.8308 18.3885 16.395 18.6767C14.9658 19.6219 13.29 20.0711 11.5477 19.976C10.1552 19.9001 8.86931 19.4852 7.69052 18.7315C7.19534 18.4149 6.88337 18.1648 6.42434 17.7164C5.78537 17.0923 5.31614 16.4678 4.92434 15.72C4.36241 14.6475 4.09064 13.6372 4.01807 12.3509C3.99989 12.0287 3.9683 11.7359 3.94436 11.6681C3.84731 11.393 3.62903 11.1695 3.35618 11.0658C3.18107 10.9992 2.83013 10.994 2.66294 11.0554Z" fill="black"/>
</svg>
