<svg width="24" height="24" viewBox="0 0 24 24" fill="none" xmlns="http://www.w3.org/2000/svg">
<path fill-rule="evenodd" clip-rule="evenodd" d="M9.12004 2.0414C6.74125 2.32478 4.66483 3.59399 3.33094 5.57999C2.63452 6.61688 2.17843 7.88429 2.03914 9.16973C1.99129 9.61133 2.01655 10.7663 2.0833 11.19C2.42884 13.3828 3.63337 15.3152 5.43628 16.5692C7.62388 18.0907 10.4356 18.4237 12.9098 17.4542C13.5412 17.2068 14.224 16.8329 14.7 16.4738L14.895 16.3267L17.655 19.0792C19.8691 21.2872 20.4447 21.8458 20.565 21.903C20.7821 22.0063 21.1336 22.0182 21.3679 21.9303C21.5773 21.8517 21.7972 21.6476 21.9014 21.435C21.9639 21.3078 21.975 21.2418 21.975 21C21.975 20.7614 21.9634 20.6906 21.9034 20.565C21.846 20.4449 21.2824 19.8645 19.0776 17.655L16.3235 14.895L16.3974 14.805C16.6491 14.4983 17.0808 13.7646 17.3153 13.245C17.4785 12.8836 17.7119 12.1789 17.8026 11.774C18.0355 10.7345 18.0613 9.63197 17.877 8.59655C17.4944 6.44756 16.2582 4.56605 14.415 3.32738C14 3.0485 13.2391 2.66261 12.75 2.48306C12.3304 2.32898 11.6651 2.15831 11.19 2.08286C10.8251 2.0249 9.484 1.99805 9.12004 2.0414ZM9.60004 4.02149C7.46596 4.16114 5.54662 5.44955 4.61926 7.36499C4.1986 8.23385 4.01602 9.03287 4.01602 10.005C4.01602 10.8017 4.14592 11.4947 4.42933 12.21C5.33395 14.493 7.54264 15.99 10.0063 15.99C12.302 15.99 14.3906 14.6809 15.3908 12.615C16.8324 9.63752 15.5915 6.05744 12.615 4.6064C11.9998 4.30646 11.1685 4.07543 10.56 4.03526C10.0398 4.00088 9.93745 3.99944 9.60004 4.02149Z" fill="black"/>
</svg>
