<svg width="24" height="24" viewBox="0 0 24 24" fill="none" xmlns="http://www.w3.org/2000/svg">
<path fill-rule="evenodd" clip-rule="evenodd" d="M17.4599 2.02824C16.9646 2.11773 16.5836 2.23722 16.2299 2.41404C15.1539 2.95191 14.3895 3.915 14.0983 5.1C14.0381 5.34468 14.028 5.46351 14.0265 5.94C14.0256 6.24525 14.0359 6.57216 14.0494 6.66645L14.0739 6.8379L11.5491 8.10039L9.02428 9.36288L8.77774 9.12618C8.24164 8.6115 7.64551 8.28657 6.88414 8.09397C6.64747 8.03412 6.54049 8.0259 5.99989 8.02599C5.45314 8.02611 5.35327 8.03403 5.09989 8.09727C3.58594 8.47524 2.47513 9.58605 2.09716 11.1C2.03392 11.3534 2.026 11.4532 2.02588 12C2.02576 12.6616 2.05681 12.862 2.23687 13.3612C2.7181 14.6953 3.91927 15.699 5.32855 15.9448C5.66341 16.0032 6.33637 16.0032 6.67123 15.9448C7.45951 15.8073 8.19469 15.4335 8.77774 14.8738L9.02428 14.6371L11.5491 15.8996L14.0739 17.1621L14.0494 17.3335C14.0359 17.4278 14.025 17.748 14.025 18.045C14.0252 18.6304 14.0567 18.8339 14.2207 19.3104C14.6869 20.6652 15.9012 21.6964 17.3213 21.9436C17.6636 22.0032 18.333 22.0038 18.6712 21.9448C20.1381 21.689 21.3553 20.632 21.806 19.2228C21.9402 18.8033 21.9899 18.4727 21.9899 18C21.9899 17.3359 21.8589 16.7754 21.569 16.2C21.0337 15.1371 20.094 14.4 18.8841 14.094C18.6475 14.0341 18.5405 14.0259 17.9999 14.026C17.4531 14.0261 17.3533 14.034 17.0999 14.0973C16.3763 14.2779 15.7639 14.6112 15.2407 15.1091L14.9745 15.3624L12.4502 14.1001L9.92584 12.8379L9.95035 12.6664C9.96385 12.5722 9.97489 12.2722 9.97489 12C9.97489 11.7277 9.96385 11.4278 9.95035 11.3335L9.92584 11.1621L12.4502 9.89985L14.9745 8.6376L15.2407 8.89089C15.8156 9.43794 16.5511 9.80922 17.3286 9.94479C17.6634 10.0032 18.3364 10.0032 18.6712 9.94479C20.1381 9.68901 21.3553 8.63202 21.806 7.22277C21.9402 6.80334 21.9899 6.47268 21.9899 6C21.9899 5.52732 21.9402 5.19666 21.806 4.77723C21.4393 3.63054 20.5488 2.69187 19.4099 2.25147C18.9861 2.08761 18.6743 2.03388 18.0899 2.02404C17.7846 2.01891 17.5011 2.0208 17.4599 2.02824ZM17.7749 4.02189C16.7734 4.12083 16.0139 4.97406 16.0139 6C16.0139 6.92388 16.6209 7.70532 17.5168 7.93476C17.7669 7.99881 18.2324 7.9989 18.483 7.93497C19.0466 7.79118 19.5306 7.40025 19.783 6.88512C19.9277 6.58965 19.9838 6.34242 19.9838 6C19.9838 5.65758 19.9277 5.41035 19.783 5.11488C19.4149 4.3635 18.6317 3.9372 17.7749 4.02189ZM5.77489 10.0219C4.95754 10.1026 4.27879 10.6977 4.06417 11.5217C3.99841 11.7742 3.99835 12.2248 4.06405 12.48C4.24825 13.1955 4.80538 13.7535 5.51677 13.935C5.767 13.9988 6.23278 13.9988 6.48301 13.935C7.19077 13.7544 7.75426 13.1909 7.93486 12.4831C7.99879 12.2325 7.9987 11.767 7.93465 11.5169C7.68496 10.5418 6.78904 9.92166 5.77489 10.0219ZM17.7749 16.0219C16.7734 16.1208 16.0139 16.9741 16.0139 18C16.0139 18.9239 16.6209 19.7053 17.5168 19.9348C17.7669 19.9988 18.2324 19.9989 18.483 19.935C19.1908 19.7544 19.7543 19.1909 19.9349 18.4831C19.9988 18.2325 19.9987 17.767 19.9347 17.5169C19.685 16.5418 18.789 15.9217 17.7749 16.0219Z" fill="black"/>
</svg>
