<svg width="24" height="24" viewBox="0 0 24 24" fill="none" xmlns="http://www.w3.org/2000/svg">
<path fill-rule="evenodd" clip-rule="evenodd" d="M10.2369 1.21763C9.75516 1.24859 9.46269 1.3077 9.12641 1.44201C8.7706 1.58411 8.43483 1.80253 8.14147 2.08271C7.69069 2.51324 7.48772 2.86439 7.16397 3.77394C7.05585 4.07779 6.96735 4.34102 6.96735 4.35894C6.96735 4.38054 6.37735 4.39147 5.20871 4.39147C4.15315 4.39147 3.38154 4.40448 3.27855 4.42401C2.92752 4.49058 2.65486 4.69205 2.48898 5.00743C2.40971 5.15815 2.3999 5.21033 2.3999 5.48132C2.3999 5.75231 2.40971 5.8045 2.48898 5.95522C2.65486 6.2706 2.92752 6.47206 3.27855 6.53864C3.37292 6.55653 3.68506 6.57118 3.97221 6.57118H4.49434L4.50845 12.4131C4.52316 18.4936 4.52633 18.6352 4.66282 19.3128C4.92701 20.6243 5.95356 21.7997 7.26491 22.2923C7.54535 22.3976 8.03181 22.4923 8.53802 22.5401C9.15023 22.5978 14.8479 22.5979 15.4618 22.5402C16.7249 22.4214 17.5111 22.0654 18.2862 21.2614C18.8357 20.6914 19.1926 20.0295 19.337 19.3128C19.4735 18.6352 19.4766 18.4936 19.4914 12.4131L19.5055 6.57118H20.0276C20.3147 6.57118 20.6269 6.55653 20.7213 6.53864C21.0723 6.47206 21.3449 6.2706 21.5108 5.95522C21.5901 5.8045 21.5999 5.75231 21.5999 5.48132C21.5999 5.21033 21.5901 5.15815 21.5108 5.00743C21.3449 4.69205 21.0723 4.49058 20.7213 4.42401C20.6185 4.40452 19.8477 4.39134 18.7991 4.39115L17.0485 4.3908L16.8567 3.83821C16.5289 2.89376 16.316 2.51984 15.8563 2.08076C15.3993 1.64434 14.8563 1.37066 14.2334 1.26282C13.9966 1.22186 13.617 1.20997 12.2884 1.20189C11.3804 1.19637 10.4573 1.20343 10.2369 1.21763ZM10.0092 3.40983C9.92796 3.43173 9.78702 3.5043 9.69599 3.57113C9.56049 3.6706 9.50767 3.74006 9.4048 3.95393C9.33569 4.0976 9.2695 4.25485 9.2577 4.30332L9.23626 4.39147H11.9999H14.7635L14.7421 4.30332C14.7303 4.25485 14.6641 4.0976 14.595 3.95393C14.4923 3.74028 14.4393 3.67056 14.3043 3.57152C14.0245 3.36611 14.0172 3.36547 11.9849 3.36787C10.6359 3.36948 10.1181 3.38047 10.0092 3.40983ZM6.67889 12.3169C6.67889 15.989 6.69078 18.19 6.71174 18.4153C6.77758 19.1218 6.88718 19.3769 7.30392 19.7937C7.72906 20.2188 7.97847 20.3231 8.7256 20.3881C9.28963 20.4372 15.3678 20.4109 15.6381 20.3582C15.7439 20.3376 15.9025 20.2973 15.9907 20.2686C16.3968 20.1366 16.8717 19.7096 17.079 19.2903C17.314 18.8148 17.2997 19.2279 17.3119 12.5574L17.3229 6.57118H12.0009H6.67886L6.67889 12.3169ZM9.46795 8.75575C9.22337 8.85227 8.95543 9.12445 8.86379 9.36937L8.79445 9.55465V13.4949V17.4352L8.86379 17.6205C8.95947 17.8763 9.2235 18.1387 9.48385 18.2369C9.63957 18.2957 9.72192 18.3068 9.91864 18.2959C10.3334 18.2727 10.6382 18.0718 10.8206 17.7014L10.9261 17.4871V13.4949V9.50282L10.8206 9.28847C10.6339 8.90926 10.3298 8.71335 9.90165 8.69645C9.69589 8.68834 9.60841 8.7003 9.46795 8.75575ZM13.795 8.73713C13.5951 8.80069 13.361 8.98187 13.2471 9.16112C13.0468 9.47628 13.0559 9.25664 13.0652 13.5617L13.0737 17.4871L13.1793 17.7014C13.3616 18.0718 13.6664 18.2727 14.0812 18.2959C14.2779 18.3068 14.3602 18.2957 14.516 18.2369C14.7763 18.1387 15.0403 17.8763 15.136 17.6205L15.2054 17.4352V13.4949V9.55465L15.136 9.36937C15.0413 9.1163 14.7758 8.8508 14.5228 8.75611C14.3066 8.67523 14.0136 8.66757 13.795 8.73713Z" fill="black"/>
</svg>
