<svg width="24" height="24" viewBox="0 0 24 24" fill="none" xmlns="http://www.w3.org/2000/svg">
<path fill-rule="evenodd" clip-rule="evenodd" d="M11.8419 2.0127C11.5177 2.06364 11.5336 2.04948 9.28184 4.30158C7.57646 6.00723 7.13447 6.46509 7.07759 6.585C6.97157 6.80841 6.97463 7.18035 7.08437 7.41444C7.18553 7.6302 7.36973 7.8144 7.58549 7.91556C7.72862 7.98267 7.79453 7.99473 8.00993 7.99326C8.43101 7.99038 8.40194 8.01258 9.7718 6.64914L10.9787 5.44797L10.9868 10.8315L10.9949 16.215L11.0747 16.3852C11.2944 16.8538 11.7939 17.1003 12.2533 16.9668C12.664 16.8474 12.92 16.5581 12.9885 16.1361C13.009 16.0098 13.0195 14.1651 13.0197 10.6958L13.0199 5.44668L14.2274 6.64851C15.5995 8.01408 15.5719 7.99305 15.9899 7.99425C16.204 7.99488 16.2721 7.98225 16.4144 7.91556C16.6301 7.8144 16.8143 7.6302 16.9155 7.41444C17.0254 7.18011 17.0283 6.80829 16.9221 6.585C16.8653 6.46563 16.4243 6.00735 14.7628 4.3413C13.6145 3.18978 12.6142 2.2092 12.5399 2.16225C12.32 2.02314 12.0896 1.97379 11.8419 2.0127ZM3.63026 15.0646C3.40001 15.1554 3.15062 15.4095 3.06374 15.6417L2.9978 15.8179L3.00674 18.0865L3.01568 20.355L3.08579 20.5493C3.18923 20.8363 3.27929 21.0003 3.45056 21.2138C3.65543 21.4692 3.86513 21.6382 4.15493 21.7812C4.65158 22.0264 3.90173 22.005 11.9999 22.005C20.0966 22.005 19.3471 22.0263 19.8449 21.7818C20.3482 21.5346 20.7086 21.1192 20.9141 20.5493L20.9842 20.355L20.9931 18.0865L21.0021 15.8179L20.9361 15.6417C20.8455 15.3994 20.5998 15.1544 20.3547 15.0619C20.209 15.007 20.1319 14.9965 19.9478 15.0068C19.5597 15.0284 19.2744 15.2164 19.1037 15.5631L19.0049 15.7636L18.9899 17.8943L18.9749 20.025L12.0899 20.0335C8.30318 20.0381 5.16149 20.0342 5.10839 20.0248L5.01185 20.0076L5.00339 17.8856L4.99493 15.7636L4.89617 15.5631C4.72142 15.2082 4.43684 15.0249 4.03616 15.0091C3.84359 15.0015 3.76172 15.0127 3.63026 15.0646Z" fill="black"/>
</svg>
