<svg width="24" height="24" viewBox="0 0 24 24" fill="none" xmlns="http://www.w3.org/2000/svg">
<path fill-rule="evenodd" clip-rule="evenodd" d="M12 4C10.3431 4 9 5.34314 9 7C9 8.65686 10.3431 10 12 10C13.6568 10 15 8.65685 15 7C15 5.34315 13.6568 4 12 4ZM7 7C7 4.23857 9.23857 2 12 2C14.7614 2 17 4.23857 17 7C17 9.76143 14.7614 12 12 12C9.23857 12 7 9.76142 7 7Z" fill="black"/>
<path fill-rule="evenodd" clip-rule="evenodd" d="M4 21C4 16.5817 7.58173 13 12 13C16.4183 13 20 16.5817 20 21C20 21.5523 19.5523 22 19 22H5C4.44772 22 4 21.5523 4 21ZM6.08296 20H17.917C17.441 17.1623 14.973 15 12 15C9.027 15 6.55904 17.1623 6.08296 20Z" fill="black"/>
</svg>
