<svg width="24" height="24" viewBox="0 0 24 24" fill="none" xmlns="http://www.w3.org/2000/svg">
<path fill-rule="evenodd" clip-rule="evenodd" d="M3.03303 4.00801C3.03303 4.01242 4.28615 5.69141 5.81775 7.73908C7.34935 9.78677 8.91212 11.8767 9.29059 12.3833L9.97869 13.3044L6.49237 17.0704C4.57487 19.1417 3.00332 20.8436 3.00003 20.8525C2.99655 20.8618 3.32311 20.8686 3.77521 20.8686H4.55638L7.61451 17.5647C9.29648 15.7475 10.6792 14.2629 10.6872 14.2656C10.6951 14.2684 11.8108 15.7531 13.1663 17.5651L15.631 20.8596L18.3155 20.8641L21 20.8687L20.796 20.5941C20.6838 20.4431 19.2526 18.5291 17.6155 16.3409C15.9784 14.1527 14.4172 12.065 14.146 11.7016L13.6531 11.041L16.9034 7.52998C18.691 5.59893 20.1537 4.01471 20.1537 4.00949C20.1537 4.00427 19.8022 4 19.3726 4H18.5915L15.7795 7.03797C14.2329 8.70886 12.9591 10.0759 12.9489 10.0759C12.9387 10.0759 11.9085 8.70911 10.6596 7.03856L8.38885 4.00121L5.71094 4.00059C4.2381 4.00027 3.03303 4.0036 3.03303 4.00801ZM5.36818 5.19268C5.37763 5.20507 7.822 8.4739 10.8001 12.4568L16.2147 19.6984H17.4386C18.1332 19.6984 18.6598 19.6916 18.6564 19.6826C18.6531 19.6739 16.2119 16.4055 13.2316 12.4194L7.81276 5.17196L6.58188 5.17108C5.59986 5.17036 5.35445 5.17473 5.36818 5.19268Z" fill="black"/>
</svg>
