<svg width="24" height="24" viewBox="0 0 24 24" fill="none" xmlns="http://www.w3.org/2000/svg">
<path fill-rule="evenodd" clip-rule="evenodd" d="M5.84191 5.01309C5.50948 5.06445 5.18587 5.32206 5.07223 5.62578C4.9885 5.84961 4.98898 6.15045 5.07349 6.38136C5.13406 6.54693 5.2633 6.68148 7.85545 9.2775L10.5739 12L7.85545 14.7225C5.2633 17.3185 5.13406 17.4531 5.07349 17.6186C4.99186 17.8417 4.98856 18.1531 5.06572 18.3561C5.26297 18.8752 5.83699 19.1264 6.37495 18.929C6.5488 18.8652 6.64804 18.77 9.27769 16.1443L12.0004 13.4256L14.6777 16.0986C16.1502 17.5687 17.3979 18.8007 17.4505 18.8364C17.8317 19.0953 18.3701 19.0386 18.7043 18.7043C18.9845 18.4241 19.0694 18.0094 18.9264 17.6186C18.8658 17.4531 18.7366 17.3185 16.1444 14.7225L13.426 12L16.1444 9.2775C18.7366 6.68148 18.8658 6.54693 18.9264 6.38136C19.1766 5.69772 18.7092 5.00361 17.9999 5.00547C17.7903 5.00601 17.6033 5.05986 17.4505 5.1636C17.3979 5.19927 16.1502 6.43131 14.6777 7.90143L12.0004 10.5744L9.27769 7.85574C6.72289 5.30475 6.54478 5.13342 6.38995 5.07768C6.18355 5.00337 6.02539 4.98474 5.84191 5.01309Z" fill="black"/>
</svg>
